<mxfile host="app.diagrams.net" agent="Mozilla/5.0 (X11; Linux x86_64) AppleWebKit/537.36 (KHTML, like Gecko) Chrome/135.0.0.0 Safari/537.36" version="26.2.14">
  <diagram name="Page-1" id="ata8sj6fHsWf9TSnN9wj">
    <mxGraphModel dx="570" dy="304" grid="1" gridSize="10" guides="1" tooltips="1" connect="1" arrows="1" fold="1" page="1" pageScale="1" pageWidth="827" pageHeight="1169" math="0" shadow="0">
      <root>
        <mxCell id="0" />
        <mxCell id="1" parent="0" />
        <mxCell id="LwlLjVBW_rg1L-slmP1z-8" style="rounded=0;orthogonalLoop=1;jettySize=auto;html=1;exitX=0;exitY=1;exitDx=0;exitDy=0;entryX=0.5;entryY=0;entryDx=0;entryDy=0;" edge="1" parent="1" source="LwlLjVBW_rg1L-slmP1z-2" target="LwlLjVBW_rg1L-slmP1z-5">
          <mxGeometry relative="1" as="geometry" />
        </mxCell>
        <mxCell id="LwlLjVBW_rg1L-slmP1z-12" value="T2" style="edgeLabel;html=1;align=center;verticalAlign=middle;resizable=0;points=[];" vertex="1" connectable="0" parent="LwlLjVBW_rg1L-slmP1z-8">
          <mxGeometry x="-0.1332" relative="1" as="geometry">
            <mxPoint as="offset" />
          </mxGeometry>
        </mxCell>
        <mxCell id="LwlLjVBW_rg1L-slmP1z-9" style="rounded=0;orthogonalLoop=1;jettySize=auto;html=1;exitX=1;exitY=1;exitDx=0;exitDy=0;entryX=0.5;entryY=0;entryDx=0;entryDy=0;" edge="1" parent="1" source="LwlLjVBW_rg1L-slmP1z-2" target="LwlLjVBW_rg1L-slmP1z-6">
          <mxGeometry relative="1" as="geometry" />
        </mxCell>
        <mxCell id="LwlLjVBW_rg1L-slmP1z-13" value="T3" style="edgeLabel;html=1;align=center;verticalAlign=middle;resizable=0;points=[];" vertex="1" connectable="0" parent="LwlLjVBW_rg1L-slmP1z-9">
          <mxGeometry x="-0.1536" relative="1" as="geometry">
            <mxPoint as="offset" />
          </mxGeometry>
        </mxCell>
        <mxCell id="LwlLjVBW_rg1L-slmP1z-2" value="0110" style="ellipse;whiteSpace=wrap;html=1;" vertex="1" parent="1">
          <mxGeometry x="230" y="390" width="60" height="20" as="geometry" />
        </mxCell>
        <mxCell id="LwlLjVBW_rg1L-slmP1z-7" style="edgeStyle=orthogonalEdgeStyle;rounded=0;orthogonalLoop=1;jettySize=auto;html=1;exitX=0.5;exitY=1;exitDx=0;exitDy=0;entryX=0.5;entryY=0;entryDx=0;entryDy=0;" edge="1" parent="1" source="LwlLjVBW_rg1L-slmP1z-4" target="LwlLjVBW_rg1L-slmP1z-2">
          <mxGeometry relative="1" as="geometry" />
        </mxCell>
        <mxCell id="LwlLjVBW_rg1L-slmP1z-11" value="T1" style="edgeLabel;html=1;align=center;verticalAlign=middle;resizable=0;points=[];" vertex="1" connectable="0" parent="LwlLjVBW_rg1L-slmP1z-7">
          <mxGeometry x="-0.154" relative="1" as="geometry">
            <mxPoint as="offset" />
          </mxGeometry>
        </mxCell>
        <mxCell id="LwlLjVBW_rg1L-slmP1z-4" value="1000" style="ellipse;whiteSpace=wrap;html=1;" vertex="1" parent="1">
          <mxGeometry x="230" y="330" width="60" height="20" as="geometry" />
        </mxCell>
        <mxCell id="LwlLjVBW_rg1L-slmP1z-5" value="0020" style="ellipse;whiteSpace=wrap;html=1;" vertex="1" parent="1">
          <mxGeometry x="190" y="450" width="60" height="20" as="geometry" />
        </mxCell>
        <mxCell id="LwlLjVBW_rg1L-slmP1z-10" style="edgeStyle=orthogonalEdgeStyle;rounded=0;orthogonalLoop=1;jettySize=auto;html=1;exitX=1;exitY=0.5;exitDx=0;exitDy=0;entryX=1;entryY=0.5;entryDx=0;entryDy=0;" edge="1" parent="1" source="LwlLjVBW_rg1L-slmP1z-6" target="LwlLjVBW_rg1L-slmP1z-4">
          <mxGeometry relative="1" as="geometry">
            <Array as="points">
              <mxPoint x="340" y="460" />
              <mxPoint x="340" y="340" />
            </Array>
          </mxGeometry>
        </mxCell>
        <mxCell id="LwlLjVBW_rg1L-slmP1z-14" value="T4" style="edgeLabel;html=1;align=center;verticalAlign=middle;resizable=0;points=[];" vertex="1" connectable="0" parent="LwlLjVBW_rg1L-slmP1z-10">
          <mxGeometry x="-0.1772" relative="1" as="geometry">
            <mxPoint as="offset" />
          </mxGeometry>
        </mxCell>
        <mxCell id="LwlLjVBW_rg1L-slmP1z-6" value="0011" style="ellipse;whiteSpace=wrap;html=1;" vertex="1" parent="1">
          <mxGeometry x="270" y="450" width="60" height="20" as="geometry" />
        </mxCell>
      </root>
    </mxGraphModel>
  </diagram>
</mxfile>
